<svg xmlns="http://www.w3.org/2000/svg" width="32" height="32" viewBox="0 0 32 32" fill="none">
  <path d="M26 9.5H12.5V7C12.5 6.07174 12.8687 5.1815 13.5251 4.52513C14.1815 3.86875 15.0717 3.5 16 3.5C17.6888 3.5 19.2063 4.7025 19.53 6.29875C19.5692 6.49179 19.6461 6.67522 19.7562 6.83855C19.8663 7.00189 20.0076 7.14193 20.1718 7.2507C20.336 7.35946 20.5201 7.4348 20.7135 7.47243C20.9068 7.51006 21.1057 7.50923 21.2987 7.47C21.4918 7.43077 21.6752 7.3539 21.8386 7.24378C22.0019 7.13366 22.1419 6.99244 22.2507 6.8282C22.3595 6.66396 22.4348 6.4799 22.4724 6.28654C22.5101 6.09317 22.5092 5.89429 22.47 5.70125C21.8587 2.6875 19.1375 0.5 16 0.5C14.2767 0.501985 12.6246 1.18744 11.406 2.406C10.1874 3.62455 9.50199 5.2767 9.5 7V9.5H6C5.33696 9.5 4.70107 9.76339 4.23223 10.2322C3.76339 10.7011 3.5 11.337 3.5 12V26C3.5 26.663 3.76339 27.2989 4.23223 27.7678C4.70107 28.2366 5.33696 28.5 6 28.5H26C26.663 28.5 27.2989 28.2366 27.7678 27.7678C28.2366 27.2989 28.5 26.663 28.5 26V12C28.5 11.337 28.2366 10.7011 27.7678 10.2322C27.2989 9.76339 26.663 9.5 26 9.5ZM25.5 25.5H6.5V12.5H25.5V25.5Z" fill="#626262"/>
</svg>