<svg xmlns="http://www.w3.org/2000/svg" width="32" height="32" viewBox="0 0 32 32" fill="none">
<path d="M31.225 10.6864L16.725 2.68636C16.503 2.5638 16.2536 2.49951 16 2.49951C15.7465 2.49951 15.497 2.5638 15.275 2.68636L0.775036 10.6864C0.540584 10.8161 0.345159 11.0062 0.209076 11.237C0.0729929 11.4679 0.0012207 11.7309 0.0012207 11.9989C0.0012207 12.2668 0.0729929 12.5299 0.209076 12.7607C0.345159 12.9915 0.540584 13.1816 0.775036 13.3114L3.50004 14.8114V20.7814C3.49905 21.3959 3.72571 21.9891 4.13629 22.4464C5.82879 24.3376 9.62504 27.5001 16 27.5001C17.6931 27.5092 19.3781 27.267 21 26.7814V30.0001C21 30.3979 21.1581 30.7795 21.4394 31.0608C21.7207 31.3421 22.1022 31.5001 22.5 31.5001C22.8979 31.5001 23.2794 31.3421 23.5607 31.0608C23.842 30.7795 24 30.3979 24 30.0001V25.5151C25.4487 24.7149 26.7544 23.6796 27.8638 22.4514C28.2744 21.9941 28.501 21.4009 28.5 20.7864V14.8164L31.225 13.3164C31.4595 13.1866 31.6549 12.9965 31.791 12.7657C31.9271 12.5349 31.9989 12.2718 31.9989 12.0039C31.9989 11.7359 31.9271 11.4729 31.791 11.242C31.6549 11.0112 31.4595 10.8211 31.225 10.6914V10.6864ZM16 5.71386L27.395 12.0001L23.25 14.2876C23.2423 14.283 23.2347 14.278 23.2275 14.2726L16.7275 10.6864C16.3805 10.507 15.9772 10.4701 15.6034 10.5835C15.2295 10.6969 14.9147 10.9517 14.7258 11.2936C14.5369 11.6356 14.4889 12.0377 14.5919 12.4145C14.695 12.7913 14.9409 13.1131 15.2775 13.3114L20.1525 15.9976L16 18.2876L4.60504 12.0001L16 5.71386ZM16 24.5001C10.9475 24.5001 7.91879 22.1164 6.50004 20.5914V16.4664L15.275 21.3089C15.497 21.4314 15.7465 21.4957 16 21.4957C16.2536 21.4957 16.503 21.4314 16.725 21.3089L21 18.9551V23.6089C19.4028 24.2125 17.7075 24.5147 16 24.5001ZM25.5 20.5914C25.0401 21.0843 24.5382 21.5364 24 21.9426V17.2989L25.5 16.4714V20.5914Z" fill="black"/>
</svg>